# Blender v2.82 (sub 7) OBJ File: 'Aa.blend'
# www.blender.org
mtllib Iı.mtl
o Text
v 0.213886 0.444584 0.080000
v 0.213886 0.010000 0.080000
v 0.156765 0.010000 0.080000
v 0.156765 0.444584 0.080000
v -0.141341 0.618106 0.080000
v -0.141341 0.010000 0.080000
v -0.204889 0.010000 0.080000
v -0.204889 0.618106 0.080000
v 0.213886 0.444584 -0.080000
v 0.213886 0.010000 -0.080000
v 0.156765 0.010000 -0.080000
v 0.156765 0.444584 -0.080000
v -0.141341 0.618106 -0.080000
v -0.141341 0.010000 -0.080000
v -0.204889 0.010000 -0.080000
v -0.204889 0.618106 -0.080000
v -0.141341 0.618106 -0.080000
v -0.131341 0.628106 -0.077320
v -0.124020 0.635427 -0.070000
v -0.121341 0.638106 -0.060000
v -0.141341 0.010000 -0.080000
v -0.131341 -0.000000 -0.077321
v -0.124020 -0.007321 -0.070000
v -0.121341 -0.010000 -0.060000
v -0.204889 0.010000 -0.080000
v -0.214889 -0.000000 -0.077321
v -0.222209 -0.007321 -0.070000
v -0.224889 -0.010000 -0.060000
v -0.204889 0.618106 -0.080000
v -0.214889 0.628106 -0.077320
v -0.222209 0.635427 -0.070000
v -0.224889 0.638106 -0.060000
v -0.121341 0.638106 -0.060000
v -0.121341 0.638106 0.060000
v -0.121341 -0.010000 -0.060000
v -0.121341 -0.010000 0.060000
v -0.224889 -0.010000 -0.060000
v -0.224889 -0.010000 0.060000
v -0.224889 0.638106 -0.060000
v -0.224889 0.638106 0.060000
v -0.121341 0.638106 0.060000
v -0.124020 0.635427 0.070000
v -0.131341 0.628106 0.077321
v -0.141341 0.618106 0.080000
v -0.121341 -0.010000 0.060000
v -0.124020 -0.007321 0.070000
v -0.131341 -0.000000 0.077321
v -0.141341 0.010000 0.080000
v -0.224889 -0.010000 0.060000
v -0.222209 -0.007321 0.070000
v -0.214889 -0.000000 0.077321
v -0.204889 0.010000 0.080000
v -0.224889 0.638106 0.060000
v -0.222209 0.635427 0.070000
v -0.214889 0.628106 0.077321
v -0.204889 0.618106 0.080000
v 0.213886 0.444584 -0.080000
v 0.223886 0.454584 -0.077320
v 0.231207 0.461905 -0.070000
v 0.233886 0.464584 -0.060000
v 0.213886 0.010000 -0.080000
v 0.223886 -0.000000 -0.077321
v 0.231207 -0.007321 -0.070000
v 0.233886 -0.010000 -0.060000
v 0.156765 0.010000 -0.080000
v 0.146765 -0.000000 -0.077321
v 0.139445 -0.007321 -0.070000
v 0.136765 -0.010000 -0.060000
v 0.156765 0.444584 -0.080000
v 0.146765 0.454584 -0.077320
v 0.139445 0.461905 -0.070000
v 0.136765 0.464584 -0.060000
v 0.233886 0.464584 -0.060000
v 0.233886 0.464584 0.060000
v 0.233886 -0.010000 -0.060000
v 0.233886 -0.010000 0.060000
v 0.136765 -0.010000 -0.060000
v 0.136765 -0.010000 0.060000
v 0.136765 0.464584 -0.060000
v 0.136765 0.464584 0.060000
v 0.233886 0.464584 0.060000
v 0.231207 0.461905 0.070000
v 0.223886 0.454584 0.077321
v 0.213886 0.444584 0.080000
v 0.233886 -0.010000 0.060000
v 0.231207 -0.007321 0.070000
v 0.223886 -0.000000 0.077321
v 0.213886 0.010000 0.080000
v 0.136765 -0.010000 0.060000
v 0.139445 -0.007321 0.070000
v 0.146765 -0.000000 0.077321
v 0.156765 0.010000 0.080000
v 0.136765 0.464584 0.060000
v 0.139445 0.461905 0.070000
v 0.146765 0.454584 0.077321
v 0.156765 0.444584 0.080000
vt 0.666667 0.000000
vt 0.000000 0.000000
vt 1.000000 0.000000
vt 0.333333 0.000000
vt 0.666667 0.000000
vt 0.000000 0.000000
vt 1.000000 0.000000
vt 0.333333 0.000000
vt 0.000000 0.000000
vt 0.666667 0.000000
vt 1.000000 0.000000
vt 0.333333 0.000000
vt 0.000000 0.000000
vt 0.666667 0.000000
vt 1.000000 0.000000
vt 0.333333 0.000000
vt 0.000000 0.333333
vt 0.250000 0.333333
vt 0.250000 0.000000
vt 0.000000 0.000000
vt 0.000000 0.666667
vt 0.250000 0.666667
vt 0.000000 1.000000
vt 0.250000 1.000000
vt 0.500000 0.333333
vt 0.500000 0.000000
vt 0.500000 0.666667
vt 0.500000 1.000000
vt 0.750000 0.333333
vt 0.750000 0.000000
vt 0.750000 0.666667
vt 0.750000 1.000000
vt 1.000000 0.333333
vt 1.000000 0.000000
vt 1.000000 0.666667
vt 1.000000 1.000000
vt 0.000000 1.000000
vt 0.250000 1.000000
vt 0.250000 0.000000
vt 0.000000 0.000000
vt 0.500000 1.000000
vt 0.500000 0.000000
vt 0.750000 1.000000
vt 0.750000 0.000000
vt 1.000000 1.000000
vt 1.000000 0.000000
vt 0.000000 0.333333
vt 0.250000 0.333333
vt 0.250000 0.000000
vt 0.000000 0.000000
vt 0.000000 0.666667
vt 0.250000 0.666667
vt 0.000000 1.000000
vt 0.250000 1.000000
vt 0.500000 0.333333
vt 0.500000 0.000000
vt 0.500000 0.666667
vt 0.500000 1.000000
vt 0.750000 0.333333
vt 0.750000 0.000000
vt 0.750000 0.666667
vt 0.750000 1.000000
vt 1.000000 0.333333
vt 1.000000 0.000000
vt 1.000000 0.666667
vt 1.000000 1.000000
vt 0.000000 0.333333
vt 0.250000 0.333333
vt 0.250000 0.000000
vt 0.000000 0.000000
vt 0.000000 0.666667
vt 0.250000 0.666667
vt 0.000000 1.000000
vt 0.250000 1.000000
vt 0.500000 0.333333
vt 0.500000 0.000000
vt 0.500000 0.666667
vt 0.500000 1.000000
vt 0.750000 0.333333
vt 0.750000 0.000000
vt 0.750000 0.666667
vt 0.750000 1.000000
vt 1.000000 0.333333
vt 1.000000 0.000000
vt 1.000000 0.666667
vt 1.000000 1.000000
vt 0.000000 1.000000
vt 0.250000 1.000000
vt 0.250000 0.000000
vt 0.000000 0.000000
vt 0.500000 1.000000
vt 0.500000 0.000000
vt 0.750000 1.000000
vt 0.750000 0.000000
vt 1.000000 1.000000
vt 1.000000 0.000000
vt 0.000000 0.333333
vt 0.250000 0.333333
vt 0.250000 0.000000
vt 0.000000 0.000000
vt 0.000000 0.666667
vt 0.250000 0.666667
vt 0.000000 1.000000
vt 0.250000 1.000000
vt 0.500000 0.333333
vt 0.500000 0.000000
vt 0.500000 0.666667
vt 0.500000 1.000000
vt 0.750000 0.333333
vt 0.750000 0.000000
vt 0.750000 0.666667
vt 0.750000 1.000000
vt 1.000000 0.333333
vt 1.000000 0.000000
vt 1.000000 0.666667
vt 1.000000 1.000000
vn 0.0000 -0.0000 1.0000
vn 0.0000 0.0000 -1.0000
vn 0.3332 0.3332 -0.8820
vn 0.3332 -0.3332 -0.8820
vn 0.1316 -0.1316 -0.9825
vn 0.1316 0.1316 -0.9825
vn 0.5885 0.5885 -0.5542
vn 0.5885 -0.5885 -0.5542
vn 0.6612 0.6612 -0.3543
vn 0.6612 -0.6612 -0.3543
vn -0.3332 -0.3332 -0.8820
vn -0.1316 -0.1316 -0.9825
vn -0.5885 -0.5885 -0.5542
vn -0.6612 -0.6612 -0.3543
vn -0.3332 0.3332 -0.8820
vn -0.1316 0.1316 -0.9825
vn -0.5885 0.5885 -0.5542
vn -0.6612 0.6612 -0.3543
vn 0.7071 0.7071 0.0000
vn 0.7071 -0.7071 0.0000
vn -0.7071 -0.7071 0.0000
vn -0.7071 0.7071 0.0000
vn 0.5885 0.5885 0.5542
vn 0.5885 -0.5885 0.5542
vn 0.6612 -0.6612 0.3543
vn 0.6612 0.6612 0.3543
vn 0.3332 0.3332 0.8820
vn 0.3332 -0.3332 0.8820
vn 0.1316 0.1316 0.9825
vn 0.1316 -0.1316 0.9825
vn -0.5885 -0.5885 0.5542
vn -0.6612 -0.6612 0.3543
vn -0.3332 -0.3332 0.8820
vn -0.1316 -0.1316 0.9825
vn -0.5885 0.5885 0.5542
vn -0.6612 0.6612 0.3543
vn -0.3332 0.3332 0.8820
vn -0.1316 0.1316 0.9825
vn 0.6612 0.6612 -0.3544
vn -0.6612 0.6612 -0.3544
vn 0.6612 0.6612 0.3544
vn -0.6612 0.6612 0.3544
usemtl Material.001
s off
f 3/1/1 1/2/1 4/3/1
f 3/1/1 2/4/1 1/2/1
f 7/5/1 5/6/1 8/7/1
f 7/5/1 6/8/1 5/6/1
f 9/9/2 11/10/2 12/11/2
f 10/12/2 11/10/2 9/9/2
f 13/13/2 15/14/2 16/15/2
f 14/16/2 15/14/2 13/13/2
s 1
f 18/17/3 22/18/4 21/19/5 17/20/6
f 19/21/7 23/22/8 22/18/4 18/17/3
f 20/23/9 24/24/10 23/22/8 19/21/7
f 22/18/4 26/25/11 25/26/12 21/19/5
f 23/22/8 27/27/13 26/25/11 22/18/4
f 24/24/10 28/28/14 27/27/13 23/22/8
f 26/25/11 30/29/15 29/30/16 25/26/12
f 27/27/13 31/31/17 30/29/15 26/25/11
f 28/28/14 32/32/18 31/31/17 27/27/13
f 30/29/15 18/33/3 17/34/6 29/30/16
f 31/31/17 19/35/7 18/33/3 30/29/15
f 32/32/18 20/36/9 19/35/7 31/31/17
f 34/37/19 36/38/20 35/39/20 33/40/19
f 36/38/20 38/41/21 37/42/21 35/39/20
f 38/41/21 40/43/22 39/44/22 37/42/21
f 40/43/22 34/45/19 33/46/19 39/44/22
f 42/47/23 46/48/24 45/49/25 41/50/26
f 43/51/27 47/52/28 46/48/24 42/47/23
f 44/53/29 48/54/30 47/52/28 43/51/27
f 46/48/24 50/55/31 49/56/32 45/49/25
f 47/52/28 51/57/33 50/55/31 46/48/24
f 48/54/30 52/58/34 51/57/33 47/52/28
f 50/55/31 54/59/35 53/60/36 49/56/32
f 51/57/33 55/61/37 54/59/35 50/55/31
f 52/58/34 56/62/38 55/61/37 51/57/33
f 54/59/35 42/63/23 41/64/26 53/60/36
f 55/61/37 43/65/27 42/63/23 54/59/35
f 56/62/38 44/66/29 43/65/27 55/61/37
f 58/67/3 62/68/4 61/69/5 57/70/6
f 59/71/7 63/72/8 62/68/4 58/67/3
f 60/73/39 64/74/10 63/72/8 59/71/7
f 62/68/4 66/75/11 65/76/12 61/69/5
f 63/72/8 67/77/13 66/75/11 62/68/4
f 64/74/10 68/78/14 67/77/13 63/72/8
f 66/75/11 70/79/15 69/80/16 65/76/12
f 67/77/13 71/81/17 70/79/15 66/75/11
f 68/78/14 72/82/40 71/81/17 67/77/13
f 70/79/15 58/83/3 57/84/6 69/80/16
f 71/81/17 59/85/7 58/83/3 70/79/15
f 72/82/40 60/86/39 59/85/7 71/81/17
f 74/87/19 76/88/20 75/89/20 73/90/19
f 76/88/20 78/91/21 77/92/21 75/89/20
f 78/91/21 80/93/22 79/94/22 77/92/21
f 80/93/22 74/95/19 73/96/19 79/94/22
f 82/97/23 86/98/24 85/99/25 81/100/41
f 83/101/27 87/102/28 86/98/24 82/97/23
f 84/103/29 88/104/30 87/102/28 83/101/27
f 86/98/24 90/105/31 89/106/32 85/99/25
f 87/102/28 91/107/33 90/105/31 86/98/24
f 88/104/30 92/108/34 91/107/33 87/102/28
f 90/105/31 94/109/35 93/110/42 89/106/32
f 91/107/33 95/111/37 94/109/35 90/105/31
f 92/108/34 96/112/38 95/111/37 91/107/33
f 94/109/35 82/113/23 81/114/41 93/110/42
f 95/111/37 83/115/27 82/113/23 94/109/35
f 96/112/38 84/116/29 83/115/27 95/111/37
